<svg height="512" viewBox="0 0 512 512" width="512" xmlns="http://www.w3.org/2000/svg"><g><g><g><path d="m296 96h180a19.994 19.994 0 0 1 20 20v312a19.994 19.994 0 0 1 -20 20h-440a19.994 19.994 0 0 1 -20-20v-312a19.994 19.994 0 0 1 20-20h180" fill="#d8d7da"/><path d="m48 144h208v224h-208z" fill="#78b9eb"/><path d="m192 208v16c-4.86 2.43-9.71 1.91-14.12 0-10.12-4.36-17.88-16-17.88-16-9.61 9.61-19.21 14.08-27.28 16-12.09 2.88-20.72 0-20.72 0v-16a32 32 0 0 1 32-32h16a32 32 0 0 1 32 32z" fill="#a0815c"/><path d="m192 224v16a40 40 0 0 1 -80 0v-16s8.63 2.88 20.72 0c8.07-1.92 17.67-6.39 27.28-16 0 0 7.76 11.64 17.88 16 4.41 1.91 9.26 2.43 14.12 0z" fill="#ffdaaa"/><path d="m72 363.92v-35.92c0-13.25 64-32 64-32a16 16 0 0 0 32 0s64 18.75 64 32v35.92" fill="#006df0"/><path d="m136 312v-32h32v32" fill="#ffdaaa"/><path d="m288 144h176v56h-176z" fill="#ff9811"/></g><g fill="#ff9811"><path d="m216 64h80v56h-80z"/><path d="m48 392h408v24h-408z"/></g></g><g><path d="m476 88h-172v-24a8 8 0 0 0 -8-8h-80a8 8 0 0 0 -8 8v24h-172a28.031 28.031 0 0 0 -28 28v312a28.031 28.031 0 0 0 28 28h440a28.031 28.031 0 0 0 28-28v-312a28.031 28.031 0 0 0 -28-28zm-252-16h64v40h-64zm264 356a12.01 12.01 0 0 1 -12 12h-440a12.01 12.01 0 0 1 -12-12v-312a12.01 12.01 0 0 1 12-12h172v16a8 8 0 0 0 8 8h80a8 8 0 0 0 8-8v-16h172a12.01 12.01 0 0 1 12 12z"/><path d="m256 136h-208a8 8 0 0 0 -8 8v224a8 8 0 0 0 8 8h208a8 8 0 0 0 8-8v-224a8 8 0 0 0 -8-8zm-32 224h-16v-8a8 8 0 0 0 -16 0v8h-80v-8a8 8 0 0 0 -16 0v8h-16v-31.08c1.1-1.36 6.56-6.63 29.84-15.58 7.62-2.93 15.06-5.44 20.42-7.17a24 24 0 0 0 43.48 0c5.33 1.72 12.73 4.22 20.33 7.14 23.35 8.96 28.82 14.25 29.93 15.61zm-65-140.38c6.32 6.89 15.25 13.47 25 13.99v6.39a32 32 0 0 1 -64 0v-6.77c9.4.37 23.95-1.62 39-13.61zm-39-2.37v-9.25a24.032 24.032 0 0 1 24-24h16a24.032 24.032 0 0 1 24 24v9.52c-8.31-1.13-17.25-13.82-17.34-13.96a8.014 8.014 0 0 0 -12.32-1.22c-13.73 13.74-27.09 15.33-34.34 14.91zm40 70.75v8a8 8 0 0 1 -16 0v-8zm88 72h-8v-32c0-9.74-10.73-17.97-37.05-28.41-10.45-4.14-20.77-7.55-26.95-9.5v-8.55a48.012 48.012 0 0 0 24-41.54v-32a40.04 40.04 0 0 0 -40-40h-16a40.04 40.04 0 0 0 -40 40v32a48.012 48.012 0 0 0 24 41.54v8.55c-6.18 1.95-16.5 5.36-26.95 9.5-26.32 10.44-37.05 18.67-37.05 28.41v32h-8v-208h192z"/><path d="m464 136h-176a8 8 0 0 0 -8 8v56a8 8 0 0 0 8 8h176a8 8 0 0 0 8-8v-56a8 8 0 0 0 -8-8zm-8 56h-160v-40h160z"/><path d="m288 240h112a8 8 0 0 0 0-16h-112a8 8 0 0 0 0 16z"/><path d="m288 336h160a8 8 0 0 0 0-16h-160a8 8 0 0 0 0 16z"/><path d="m288 360h56a8 8 0 0 0 0-16h-56a8 8 0 0 0 0 16z"/><path d="m368 344a8 8 0 0 0 0 16h8a8 8 0 0 0 0-16z"/><path d="m456 384h-408a8 8 0 0 0 -8 8v24a8 8 0 0 0 8 8h408a8 8 0 0 0 8-8v-24a8 8 0 0 0 -8-8zm-8 24h-392v-8h392z"/></g></g></svg>